<?xml version="1.0" standalone="no"?>
<!DOCTYPE svg PUBLIC "-//W3C//DTD SVG 20010904//EN"
 "http://www.w3.org/TR/2001/REC-SVG-20010904/DTD/svg10.dtd">
<svg version="1.0" xmlns="http://www.w3.org/2000/svg"
 width="324.000000pt" height="324.000000pt" viewBox="0 0 324.000000 324.000000"
 preserveAspectRatio="xMidYMid meet">
<metadata>
Created by potrace 1.11, written by Peter Selinger 2001-2013
</metadata>
<g transform="translate(0.000000,324.000000) scale(0.100000,-0.100000)"
fill="#000000" stroke="none">
<path d="M1638 3235 c-2 -2 -34 -5 -73 -8 -275 -23 -606 -159 -835 -344 -116
-94 -273 -268 -352 -393 -93 -146 -186 -366 -213 -502 -13 -70 -16 -87 -26
-142 -20 -112 -17 -378 5 -488 3 -12 9 -48 15 -78 6 -30 28 -107 48 -170 138
-430 484 -803 908 -980 302 -125 591 -154 955 -95 216 36 524 184 710 342 54
46 175 168 212 214 34 42 86 142 93 177 3 15 7 38 10 52 8 32 7 144 -1 189 -3
20 -23 72 -44 116 -124 261 -433 360 -693 222 -55 -29 -130 -93 -172 -147 -81
-104 -269 -189 -422 -192 -288 -5 -529 175 -604 452 -24 90 -20 250 10 341 31
96 107 207 186 273 120 98 254 145 405 141 172 -4 294 -61 441 -205 105 -104
176 -149 275 -175 273 -73 561 107 618 388 24 117 11 208 -45 325 -34 70 -57
100 -152 196 -123 125 -205 190 -330 264 -253 149 -506 220 -804 227 -67 1
-124 1 -125 0z"/>
<path d="M1653 1916 c-137 -43 -225 -169 -219 -312 4 -88 30 -149 91 -209 66
-66 122 -89 220 -89 68 -1 89 3 137 27 108 53 171 148 174 267 3 101 -22 167
-90 236 -84 84 -203 114 -313 80z"/>
</g>
</svg>
