<?xml version="1.0" standalone="no"?>
<!DOCTYPE svg PUBLIC "-//W3C//DTD SVG 20010904//EN"
 "http://www.w3.org/TR/2001/REC-SVG-20010904/DTD/svg10.dtd">
<svg version="1.0" xmlns="http://www.w3.org/2000/svg"
 width="88.000000pt" height="88.000000pt" viewBox="0 0 88.000000 88.000000"
 preserveAspectRatio="xMidYMid meet">
<metadata>
Created by potrace 1.11, written by Peter Selinger 2001-2013
</metadata>
<g transform="translate(0.000000,88.000000) scale(0.100000,-0.100000)"
fill="#000000" stroke="none">
<path d="M270 590 c0 -6 11 -16 25 -22 l25 -11 0 -167 0 -167 -25 -11 c-48
-22 -27 -32 70 -32 97 0 118 10 70 32 -23 10 -25 16 -25 80 l0 68 44 0 c36 0
46 -4 51 -20 10 -30 22 -24 29 14 7 38 -1 86 -15 86 -4 0 -13 -9 -19 -20 -8
-15 -21 -20 -50 -20 l-40 0 0 80 0 80 56 0 c53 0 55 -1 70 -35 24 -57 38 -47
47 33 l5 42 -159 0 c-102 0 -159 -4 -159 -10z"/>
</g>
</svg>
