<?xml version="1.0" standalone="no"?>
<!DOCTYPE svg PUBLIC "-//W3C//DTD SVG 20010904//EN"
 "http://www.w3.org/TR/2001/REC-SVG-20010904/DTD/svg10.dtd">
<svg version="1.0" xmlns="http://www.w3.org/2000/svg"
 width="484.000000pt" height="484.000000pt" viewBox="0 0 484.000000 484.000000"
 preserveAspectRatio="xMidYMid meet">
<metadata>
Created by potrace 1.11, written by Peter Selinger 2001-2013
</metadata>
<g transform="translate(0.000000,484.000000) scale(0.100000,-0.100000)"
fill="#000000" stroke="none">
<path d="M0 4830 c0 -6 324 -11 936 -12 l937 -3 71 -182 c39 -100 74 -184 77
-187 13 -14 257 165 426 312 l71 62 1161 0 c767 0 1161 3 1161 10 0 7 -813 10
-2420 10 -1598 0 -2420 -3 -2420 -10z"/>
<path d="M2678 3460 c-137 -9 -251 -20 -255 -23 -3 -4 150 -404 341 -888 l347
-882 56 -61 c31 -34 78 -89 105 -123 43 -54 54 -63 91 -68 54 -7 1446 -155
1464 -155 11 0 13 164 13 919 l0 918 -77 7 c-43 3 -154 17 -248 31 -93 14
-264 39 -380 56 -265 38 -332 56 -475 128 -198 100 -288 129 -470 151 -110 13
-211 11 -512 -10z"/>
</g>
</svg>
